<svg xmlns="http://www.w3.org/2000/svg" viewBox="0 0 1200 380" preserveAspectRatio="xMidYMid slice">
<defs>
<linearGradient id="c-bg" x1="0" y1="0" x2="1" y2="1"><stop offset="0" stop-color="#132b38"/><stop offset="1" stop-color="#2c5c76"/></linearGradient>
<linearGradient id="c-led" x1="0" y1="0" x2="1" y2="0"><stop offset="0" stop-color="#bfe6ff" stop-opacity="0"/><stop offset=".5" stop-color="#eaf7ff"/><stop offset="1" stop-color="#bfe6ff" stop-opacity="0"/></linearGradient>
<radialGradient id="c-glow" cx="70%" cy="40%" r="55%"><stop offset="0" stop-color="#9ecbe4" stop-opacity=".55"/><stop offset="1" stop-color="#9ecbe4" stop-opacity="0"/></radialGradient>
</defs>
<rect width="1200" height="380" fill="url(#c-bg)"/>
<rect width="1200" height="380" fill="url(#c-glow)"/>
<g>
<rect x="620" y="70" width="470" height="12" rx="6" fill="url(#c-led)"/>
<rect x="700" y="150" width="470" height="12" rx="6" fill="url(#c-led)"/>
<rect x="640" y="230" width="470" height="12" rx="6" fill="url(#c-led)"/>
<rect x="740" y="310" width="420" height="12" rx="6" fill="url(#c-led)"/>
</g>
<g fill="#eaf7ff">
<circle cx="880" cy="76" r="3"/><circle cx="940" cy="76" r="3"/><circle cx="1000" cy="76" r="3"/>
<circle cx="900" cy="156" r="3"/><circle cx="960" cy="156" r="3"/><circle cx="1020" cy="156" r="3"/>
</g>
<rect x="1040" y="40" width="120" height="90" rx="8" fill="none" stroke="#eaf7ff" stroke-opacity=".35" stroke-width="2"/>
<path d="M1040 70 h120 M1040 100 h120 M1070 40 v90 M1100 40 v90 M1130 40 v90" stroke="#eaf7ff" stroke-opacity=".18" stroke-width="1"/>
</svg>
